<?xml version="1.0" encoding="UTF-8" standalone="no"?>
<!-- Created with Inkscape (http://www.inkscape.org/) -->

<svg
   xmlns:dc="http://purl.org/dc/elements/1.1/"
   xmlns:cc="http://creativecommons.org/ns#"
   xmlns:rdf="http://www.w3.org/1999/02/22-rdf-syntax-ns#"
   xmlns:svg="http://www.w3.org/2000/svg"
   xmlns="http://www.w3.org/2000/svg"
   xmlns:sodipodi="http://sodipodi.sourceforge.net/DTD/sodipodi-0.dtd"
   xmlns:inkscape="http://www.inkscape.org/namespaces/inkscape"
   version="1.1"
   id="svg2305"
   xml:space="preserve"
   width="800"
   height="800"
   viewBox="0 0 800 800"
   sodipodi:docname="logo-design-element-#3.svg"
   inkscape:version="0.92.4 (5da689c313, 2019-01-14)"><metadata
     id="metadata2311"><rdf:RDF><cc:Work
         rdf:about=""><dc:format>image/svg+xml</dc:format><dc:type
           rdf:resource="http://purl.org/dc/dcmitype/StillImage" /><dc:title></dc:title></cc:Work></rdf:RDF></metadata><defs
     id="defs2309"><clipPath
       clipPathUnits="userSpaceOnUse"
       id="clipPath2321"><path
         d="M 0,600 H 600 V 0 H 0 Z"
         id="path2319"
         inkscape:connector-curvature="0" /></clipPath><linearGradient
       x1="0"
       y1="0"
       x2="1"
       y2="0"
       gradientUnits="userSpaceOnUse"
       gradientTransform="matrix(-1.53e-5,431.50195,431.50195,1.53e-5,303.48145,99.472656)"
       spreadMethod="pad"
       id="linearGradient2345"><stop
         style="stop-opacity:1;stop-color:#1aaeec"
         offset="0"
         id="stop2335" /><stop
         style="stop-opacity:1;stop-color:#4253a7"
         offset="0.297753"
         id="stop2337" /><stop
         style="stop-opacity:1;stop-color:#e70c8d"
         offset="0.646067"
         id="stop2339" /><stop
         style="stop-opacity:1;stop-color:#e33c47"
         offset="0.955056"
         id="stop2341" /><stop
         style="stop-opacity:1;stop-color:#e33c47"
         offset="1"
         id="stop2343" /></linearGradient></defs><sodipodi:namedview
     pagecolor="#ffffff"
     bordercolor="#666666"
     borderopacity="1"
     objecttolerance="10"
     gridtolerance="10"
     guidetolerance="10"
     inkscape:pageopacity="0"
     inkscape:pageshadow="2"
     inkscape:window-width="1920"
     inkscape:window-height="1018"
     id="namedview2307"
     showgrid="false"
     inkscape:zoom="0.295"
     inkscape:cx="400"
     inkscape:cy="400"
     inkscape:window-x="-8"
     inkscape:window-y="-8"
     inkscape:window-maximized="1"
     inkscape:current-layer="g2313" /><g
     id="g2313"
     inkscape:groupmode="layer"
     inkscape:label="logotype-element-3-publicdomainvectors.org"
     transform="matrix(1.3333333,0,0,-1.3333333,0,800)"><g
       id="g2315"><g
         id="g2317"
         clip-path="url(#clipPath2321)"><g
           id="g2323"><g
             id="g2325"><g
               id="g2331"><g
                 id="g2333"><path
                   d="m 491.945,299.675 c 2.099,17.83 4.491,38.086 7.018,59.557 -21.435,-2.872 -41.643,-5.574 -59.444,-7.962 9.691,15.266 20.687,32.617 32.361,51.019 l -28.054,-11.886 c -7.229,5.395 -29.544,22.047 -59.29,44.243 -17.325,-42.104 -29.347,-71.318 -29.347,-71.318 l 23.861,-9.809 c 0,0 6.438,15.666 16.694,40.584 11.887,-8.868 21.322,-15.908 27.424,-20.464 -15.022,-23.681 -27.412,-43.215 -35.082,-55.276 16.896,2.263 46.207,6.182 81.384,10.9 -4.161,-35.237 -7.626,-64.612 -9.626,-81.534 13.751,9.033 37.266,24.482 65.568,43.071 l 17.032,42.031 c -18.219,-11.963 -35.385,-23.229 -50.499,-33.156 m -323.742,99.5 c -1.059,-8.962 -4.319,-36.609 -8.674,-73.468 45.126,6.047 76.439,10.245 76.439,10.245 l -3.435,25.566 c 0,0 -16.787,-2.256 -43.493,-5.831 1.737,14.724 3.118,26.42 4.007,33.976 28.017,-1.165 51.133,-2.128 65.414,-2.74 -10.409,13.502 -28.46,36.921 -50.136,65.027 32.599,14.017 59.774,25.705 75.425,32.434 -14.695,7.391 -39.833,20.032 -70.084,35.247 l -44.915,-6.267 c 19.469,-9.795 37.808,-19.025 53.965,-27.156 -16.493,-7.099 -35.229,-15.149 -55.089,-23.699 13.202,-17.127 25.651,-33.273 36.618,-47.499 -18.069,0.762 -38.592,1.612 -60.364,2.52 z m 119.474,-15.123 20.424,15.761 c 0,0 -10.344,13.41 -26.798,34.749 13.622,5.864 24.438,10.516 31.431,13.523 12.995,-24.849 23.72,-45.35 30.332,-58.022 6.491,15.761 17.747,43.107 31.247,75.93 28.442,-21.222 52.148,-38.91 65.799,-49.1 -0.941,16.42 -2.567,44.51 -4.515,78.318 l -27.882,35.764 c 1.249,-21.757 2.424,-42.262 3.465,-60.312 -14.395,10.732 -30.739,22.929 -48.072,35.859 -8.229,-19.999 -15.991,-38.855 -22.826,-55.462 -8.377,16.028 -17.903,34.225 -27.999,53.535 l -3.736,-30.24 c -8.285,-3.563 -33.859,-14.563 -67.96,-29.226 27.801,-36.053 47.09,-61.077 47.09,-61.077 m -35.904,-116.932 -23.859,9.805 c 0,0 -6.439,-15.665 -16.695,-40.581 -11.886,8.865 -21.322,15.908 -27.42,20.461 15.017,23.68 27.409,43.214 35.078,55.279 -16.896,-2.263 -46.206,-6.186 -81.384,-10.904 4.161,35.24 7.626,64.616 9.626,81.535 -13.75,-9.029 -37.265,-24.479 -65.568,-43.071 L 64.519,297.612 c 18.219,11.964 35.386,23.231 50.499,33.16 -2.099,-17.834 -4.49,-38.085 -7.018,-59.557 21.435,2.868 41.643,5.575 59.444,7.963 -9.692,-15.271 -20.688,-32.621 -32.361,-51.024 l 28.058,11.89 c 7.234,-5.398 29.547,-22.051 59.286,-44.247 17.325,42.108 29.346,71.323 29.346,71.323 m 186.988,-35.849 c 1.058,8.964 4.319,36.611 8.673,73.466 -45.125,-6.048 -76.44,-10.241 -76.44,-10.241 l 3.437,-25.566 c 0,0 16.787,2.252 43.496,5.831 -1.737,-14.729 -3.117,-26.424 -4.012,-33.984 -28.017,1.168 -51.133,2.135 -65.414,2.747 10.41,-13.501 28.461,-36.925 50.137,-65.03 -32.599,-14.018 -59.773,-25.706 -75.425,-32.431 14.695,-7.391 39.833,-20.035 70.085,-35.25 l 44.914,6.267 c -19.469,9.797 -37.808,19.027 -53.969,27.155 16.498,7.1 35.234,15.154 55.093,23.703 -13.205,17.124 -25.651,33.272 -36.618,47.496 18.069,-0.759 38.593,-1.609 60.364,-2.517 z M 319.287,246.392 298.863,230.63 c 0,0 10.344,-13.409 26.797,-34.749 -13.622,-5.86 -24.438,-10.512 -31.434,-13.519 -12.996,24.849 -23.717,45.349 -30.329,58.019 -6.49,-15.762 -17.746,-43.109 -31.247,-75.93 -28.442,21.222 -52.148,38.913 -65.799,49.104 0.941,-16.425 2.567,-44.511 4.516,-78.319 l 27.882,-35.763 c -1.25,21.756 -2.425,42.256 -3.466,60.311 14.395,-10.735 30.739,-22.932 48.071,-35.859 8.231,19.999 15.992,38.852 22.827,55.463 8.377,-16.029 17.904,-34.225 27.999,-53.539 l 3.736,30.243 c 8.285,3.564 33.862,14.56 67.96,29.222 -27.801,36.056 -47.089,61.078 -47.089,61.078"
                   style="fill:url(#linearGradient2345);stroke:none"
                   id="path2347"
                   inkscape:connector-curvature="0" /></g></g></g></g></g></g></g></svg>
